<svg width="25" height="25" viewBox="0 0 25 25" fill="none" xmlns="http://www.w3.org/2000/svg">
<path d="M11.4094 0H13.5896C13.7834 0 13.8803 0.0925926 13.8803 0.277778V24.7222C13.8803 24.9074 13.7834 25 13.5896 25H11.4094C11.2156 25 11.1187 24.9074 11.1187 24.7222V0.277778C11.1187 0.0925926 11.2156 0 11.4094 0Z" fill="white"/>
<path d="M0.290698 11.1807H24.7093C24.9031 11.1807 25 11.2733 25 11.4584V13.5418C25 13.727 24.9031 13.8196 24.7093 13.8196H0.290698C0.0968992 13.8196 0 13.727 0 13.5418V11.4584C0 11.2733 0.0968992 11.1807 0.290698 11.1807Z" fill="white"/>
</svg>
