<?xml version="1.0" encoding="UTF-8" standalone="no"?>
<!-- Created with Inkscape (http://www.inkscape.org/) -->

<svg
   width="98.743324mm"
   height="100.00012mm"
   viewBox="0 0 98.743324 100.00012"
   version="1.1"
   id="svg21"
   sodipodi:docname="logo_black"
   inkscape:version="1.2.1 (0f2f062aeb, 2022-09-21, custom)"
   xmlns:inkscape="http://www.inkscape.org/namespaces/inkscape"
   xmlns:sodipodi="http://sodipodi.sourceforge.net/DTD/sodipodi-0.dtd"
   xmlns="http://www.w3.org/2000/svg"
   xmlns:svg="http://www.w3.org/2000/svg">
  <sodipodi:namedview
     id="namedview23"
     pagecolor="#ffffff"
     bordercolor="#000000"
     borderopacity="0.25"
     inkscape:showpageshadow="2"
     inkscape:pageopacity="0.0"
     inkscape:pagecheckerboard="0"
     inkscape:deskcolor="#d1d1d1"
     inkscape:document-units="mm"
     showgrid="false"
     showguides="true"
     inkscape:zoom="0.58695387"
     inkscape:cx="-206.14908"
     inkscape:cy="276.8531"
     inkscape:window-width="1920"
     inkscape:window-height="1016"
     inkscape:window-x="0"
     inkscape:window-y="27"
     inkscape:window-maximized="1"
     inkscape:current-layer="layer1">
    <inkscape:grid
       type="xygrid"
       id="grid2075"
       originx="-145.31169"
       originy="-361.03106" />
    <sodipodi:guide
       position="131.24784,125.57309"
       orientation="1,0"
       id="guide2801"
       inkscape:locked="false" />
    <sodipodi:guide
       position="160.35201,125.57309"
       orientation="1,0"
       id="guide2803"
       inkscape:locked="false" />
    <sodipodi:guide
       position="147.12285,125.57308"
       orientation="0,-1"
       id="guide2805"
       inkscape:locked="false" />
  </sodipodi:namedview>
  <defs
     id="defs18" />
  <g
     inkscape:label="Слой 1"
     inkscape:groupmode="layer"
     id="layer1"
     transform="translate(-16.918814,-73.197958)">
    <path
       id="ellipse2084"
       style="fill:#000000;fill-opacity:1;fill-rule:nonzero;stroke-width:0"
       d="m 56.918956,73.197958 a 40,49.999996 0 0 0 -1.050065,0.04909 l 4.070036,7.0497 c 0.689712,1.19463 -5.602891,4.80704 -6.639388,3.83335 -2.42869,-2.28147 -1.209983,-4.79847 -4.729427,-8.19174 -1.312805,-1.26573 -9.034548,3.18699 -8.53643,4.92889 1.430532,5.0026 4.639337,4.64409 4.729427,8.19175 0.03278,1.29105 -5.10046,4.30955 -5.691642,3.28559 l -5.568136,-9.64437 A 40,49.999996 0 0 0 18.11564,111.15016 h 6.955131 c 4.125432,0 6.188252,6.0239 6.188252,12.04784 0,6.02396 -2.062801,12.04785 -6.188252,12.04785 h -6.9634 a 40,49.999996 0 0 0 15.400094,28.44271 l 5.564002,-9.63714 c 0.591184,-1.02396 5.724418,1.99454 5.691642,3.28559 -0.09009,3.54768 -3.298891,3.18915 -4.729427,8.19174 -0.498119,1.74193 7.223623,6.19463 8.53643,4.9289 3.519451,-3.39329 2.300733,-5.91025 4.729427,-8.19175 1.036498,-0.97368 7.329102,2.63873 6.639388,3.83336 l -4.070036,7.05022 a 40,49.999996 0 0 0 1.050065,0.0486 40,49.999996 0 0 0 18.189587,-5.5025 40,49.999996 0 0 1 -21.623486,-44.38024 40,49.999996 0 0 1 21.831742,-44.510462 40,49.999996 0 0 0 -18.397843,-5.60689 z m 28.821497,6.4611 A 29.921877,43.65625 0 0 0 55.818248,123.31531 29.921877,43.65625 0 0 0 85.740453,166.97156 29.921877,43.65625 0 0 0 115.66214,123.31531 29.921877,43.65625 0 0 0 85.740453,79.659058 Z m 0,3.74757 a 27.353315,39.908699 0 0 1 27.353367,39.908682 27.353315,39.908699 0 0 1 -27.353367,39.90868 27.353315,39.908699 0 0 1 -27.35337,-39.90868 27.353315,39.908699 0 0 1 27.35337,-39.908682 z m 0,3.25872 a 25.119659,36.649776 0 0 0 -23.040455,22.095812 13.718961,20.016069 0 0 1 9.406145,-5.46168 13.718961,20.016069 0 0 1 13.719059,20.01583 13.718961,20.016069 0 0 1 -13.719059,20.01583 13.718961,20.016069 0 0 1 -9.406145,-5.46168 25.119659,36.649776 0 0 0 23.040455,22.09581 A 25.119659,36.649776 0 0 0 110.85985,123.31531 25.119659,36.649776 0 0 0 85.740453,86.665348 Z M 21.740741,116.89193 a 4.8219576,6.305944 0 0 0 -4.821927,6.30607 4.8219576,6.305944 0 0 0 4.821927,6.30608 4.8219576,6.305944 0 0 0 4.821928,-6.30608 4.8219576,6.305944 0 0 0 -4.821928,-6.30607 z" />
  </g>
</svg>
