<svg width="385" height="101" viewBox="0 0 385 101" fill="none" xmlns="http://www.w3.org/2000/svg">
<rect x="0.855957" y="0.891602" width="99.6654" height="99.6654" fill="#F0D183"/>
<path d="M46.2546 26C46.0773 26.0053 45.9 26.0135 45.7229 26.0245L47.7838 29.5494C48.1331 30.1467 44.9467 31.9529 44.4219 31.4661C43.1921 30.3253 43.8092 29.0668 42.0271 27.3702C41.3623 26.7373 37.4523 28.9637 37.7045 29.8346C38.4289 32.3359 40.0537 32.1567 40.0993 33.9305C40.1159 34.576 37.5166 36.0853 37.2173 35.5733L34.3978 30.7511C30.5213 34.2086 27.7612 39.2477 26.606 44.9761H30.1279C32.2168 44.9761 33.2614 47.988 33.2614 51C33.2614 54.012 32.2168 57.0239 30.1279 57.0239H26.6018C27.7592 62.7521 30.5216 67.79 34.3999 71.2452L37.2173 66.4267C37.5166 65.9147 40.1159 67.4239 40.0993 68.0695C40.0537 69.8433 38.4289 69.664 37.7045 72.1653C37.4523 73.0363 41.3623 75.2627 42.0271 74.6298C43.8092 72.9331 43.1921 71.6747 44.4219 70.5339C44.9467 70.0471 48.1331 71.8533 47.7838 72.4506L45.7229 75.9757C45.9 75.9867 46.0773 75.9948 46.2546 76C49.4579 75.9948 52.6144 75.0519 55.4651 73.2488C52.1678 71.1437 49.4026 67.9606 47.4716 64.0472C45.5406 60.1339 44.5181 55.6407 44.5158 51.0587C44.5184 46.4521 45.5521 41.9359 47.5029 38.0086C49.4536 34.0814 52.2456 30.8958 55.5706 28.8035C52.6918 26.9621 49.497 26.0007 46.2546 26ZM60.8488 29.2305C58.859 29.2305 56.8888 29.7951 55.0505 30.892C53.2123 31.989 51.542 33.5968 50.135 35.6238C48.7281 37.6507 47.612 40.057 46.8506 42.7053C46.0892 45.3537 45.6972 48.1921 45.6972 51.0586C45.6972 53.9252 46.0892 56.7636 46.8506 59.412C47.612 62.0603 48.7281 64.4666 50.135 66.4935C51.542 68.5205 53.2123 70.1283 55.0505 71.2252C56.8888 72.3222 58.859 72.8868 60.8488 72.8867C64.8671 72.8867 68.7209 70.587 71.5623 66.4934C74.4037 62.3998 76 56.8478 76 51.0586C76 45.2695 74.4037 39.7175 71.5623 35.6239C68.7209 31.5303 64.8671 29.2306 60.8488 29.2305ZM60.8488 31.1043C62.6677 31.1043 64.4688 31.6205 66.1492 32.6232C67.8296 33.626 69.3565 35.0959 70.6427 36.9488C71.9289 38.8017 72.9491 41.0015 73.6452 43.4224C74.3412 45.8434 74.6995 48.4382 74.6995 51.0586C74.6995 53.6791 74.3412 56.2739 73.6452 58.6948C72.9491 61.1158 71.9289 63.3156 70.6427 65.1685C69.3565 67.0214 67.8296 68.4912 66.1492 69.494C64.4688 70.4968 62.6677 71.013 60.8488 71.013C59.0299 71.013 57.2288 70.4968 55.5483 69.494C53.8679 68.4912 52.341 67.0214 51.0548 65.1685C49.7686 63.3156 48.7484 61.1158 48.0523 58.6948C47.3563 56.2739 46.998 53.6791 46.998 51.0586C46.998 48.4382 47.3563 45.8434 48.0523 43.4224C48.7484 41.0015 49.7686 38.8017 51.0548 36.9488C52.341 35.0959 53.8679 33.626 55.5483 32.6232C57.2288 31.6205 59.0299 31.1043 60.8488 31.1043ZM60.8488 32.7337C58.3681 32.7356 55.9421 33.7825 53.8692 35.7454C51.7963 37.7084 50.167 40.5017 49.1819 43.7816C50.4698 42.0298 52.1736 41.0529 53.9448 41.0507C55.7872 41.0507 57.5542 42.1051 58.857 43.982C60.1597 45.8588 60.8916 48.4044 60.8917 51.0586C60.8916 53.7129 60.1597 56.2585 58.857 58.1353C57.5542 60.0122 55.7872 61.0666 53.9448 61.0666C52.1736 61.0643 50.4698 60.0875 49.1819 58.3357C50.167 61.6156 51.7963 64.4089 53.8692 66.3718C55.9421 68.3348 58.3681 69.3817 60.8488 69.3836C64.2222 69.3836 67.4575 67.4529 69.8429 64.0163C72.2282 60.5797 73.5683 55.9187 73.5683 51.0586C73.5683 46.1986 72.2282 41.5376 69.8429 38.101C67.4575 34.6644 64.2222 32.7337 60.8488 32.7337ZM28.4416 47.847C28.121 47.847 27.8035 47.9285 27.5073 48.087C27.211 48.2454 26.9419 48.4777 26.7151 48.7705C26.4884 49.0633 26.3085 49.4108 26.1858 49.7934C26.0631 50.1759 26 50.5859 26 51C26 51.414 26.0631 51.8241 26.1858 52.2066C26.3085 52.5891 26.4884 52.9367 26.7151 53.2295C26.9419 53.5223 27.211 53.7546 27.5073 53.913C27.8035 54.0715 28.121 54.153 28.4416 54.153C28.7623 54.153 29.0798 54.0715 29.376 53.913C29.6723 53.7546 29.9414 53.5223 30.1682 53.2295C30.3949 52.9367 30.5747 52.5891 30.6975 52.2066C30.8202 51.8241 30.8833 51.414 30.8833 51C30.8833 50.5859 30.8202 50.1759 30.6974 49.7934C30.5747 49.4108 30.3949 49.0633 30.1682 48.7705C29.9414 48.4777 29.6723 48.2454 29.376 48.087C29.0798 47.9285 28.7623 47.847 28.4416 47.847Z" fill="black"/>
<path d="M177.108 70.8916C172.91 70.8916 169.803 69.8924 167.786 67.8941C165.788 65.8774 164.788 62.7699 164.788 58.5716V45.9216C164.788 41.6866 165.788 38.5699 167.786 36.5716C169.784 34.5549 172.873 33.5649 177.053 33.6016H183.708C187.155 33.6016 189.786 34.3166 191.601 35.7466C193.416 37.1583 194.47 39.3949 194.763 42.4566C194.873 43.2266 194.727 43.8133 194.323 44.2166C193.92 44.6199 193.333 44.8216 192.563 44.8216C191.17 44.8216 190.363 44.0516 190.143 42.5116C189.96 40.8249 189.373 39.6883 188.383 39.1016C187.412 38.5149 185.853 38.2216 183.708 38.2216H177.053C175.11 38.2033 173.579 38.4233 172.461 38.8816C171.361 39.3399 170.573 40.1374 170.096 41.2741C169.638 42.3924 169.408 43.9416 169.408 45.9216V58.5716C169.408 60.5333 169.638 62.0733 170.096 63.1916C170.573 64.3099 171.37 65.1074 172.488 65.5841C173.607 66.0424 175.147 66.2716 177.108 66.2716H183.708C185.413 66.2716 186.743 66.0883 187.696 65.7216C188.668 65.3366 189.346 64.6674 189.731 63.7141C190.116 62.7608 190.308 61.4133 190.308 59.6716V57.0866L186.018 57.0316C184.478 57.0316 183.708 56.2616 183.708 54.7216C183.708 53.1816 184.478 52.4116 186.018 52.4116L192.618 52.4666C194.158 52.4666 194.928 53.2366 194.928 54.7766V59.6716C194.928 63.5766 194.021 66.4274 192.206 68.2241C190.391 70.0024 187.558 70.8916 183.708 70.8916H177.108ZM221.012 70.8916C216.813 70.8916 213.706 69.8924 211.689 67.8941C209.691 65.8774 208.692 62.7699 208.692 58.5716V45.8666C208.692 41.6316 209.7 38.5241 211.717 36.5441C213.733 34.5458 216.832 33.5649 221.012 33.6016H227.612C231.828 33.6016 234.936 34.6008 236.934 36.5991C238.933 38.5974 239.932 41.7049 239.932 45.9216V58.5716C239.932 62.7699 238.933 65.8774 236.934 67.8941C234.936 69.8924 231.828 70.8916 227.612 70.8916H221.012ZM221.012 66.2716H227.612C229.573 66.2716 231.113 66.0424 232.232 65.5841C233.35 65.1074 234.138 64.3099 234.597 63.1916C235.073 62.0733 235.312 60.5333 235.312 58.5716V45.9216C235.312 43.9783 235.073 42.4474 234.597 41.3291C234.138 40.2108 233.35 39.4133 232.232 38.9366C231.113 38.4599 229.573 38.2216 227.612 38.2216H221.012C219.068 38.2033 217.538 38.4233 216.419 38.8816C215.301 39.3399 214.503 40.1283 214.027 41.2466C213.55 42.3649 213.312 43.9049 213.312 45.8666V58.5716C213.312 60.5333 213.541 62.0733 213.999 63.1916C214.476 64.3099 215.273 65.1074 216.392 65.5841C217.51 66.0424 219.05 66.2716 221.012 66.2716ZM257.836 70.8916C256.296 70.8916 255.526 70.1216 255.526 68.5816V35.9116C255.526 34.3716 256.296 33.6016 257.836 33.6016C259.376 33.6016 260.146 34.3716 260.146 35.9116V66.2716H275.381C276.921 66.2716 277.691 67.0416 277.691 68.5816C277.691 70.1216 276.921 70.8916 275.381 70.8916H257.836ZM293.092 70.8916C291.552 70.8916 290.782 70.1216 290.782 68.5816V35.9116C290.782 34.3716 291.552 33.6016 293.092 33.6016H306.347C311.132 33.6016 314.652 34.7383 316.907 37.0116C319.181 39.2666 320.317 42.7866 320.317 47.5716V56.9216C320.317 61.7066 319.19 65.2358 316.935 67.5091C314.698 69.7641 311.169 70.8916 306.347 70.8916H293.092ZM295.402 66.2716H306.347C308.694 66.2716 310.546 65.9874 311.902 65.4191C313.277 64.8324 314.249 63.8608 314.817 62.5041C315.404 61.1291 315.697 59.2683 315.697 56.9216V47.5716C315.697 45.2433 315.404 43.4008 314.817 42.0441C314.249 40.6691 313.277 39.6883 311.902 39.1016C310.546 38.5149 308.694 38.2216 306.347 38.2216H295.402V66.2716Z" fill="#F0D183"/>
<rect x="2.35596" y="2.3916" width="380.712" height="96.6654" stroke="#F0D183" stroke-width="3"/>
</svg>
