<svg width="50" height="50" viewBox="0 0 50 50" fill="none" xmlns="http://www.w3.org/2000/svg">
<path d="M20.2546 0C20.0773 0.00530773 19.9 0.0134889 19.7229 0.0245437L21.7838 3.54939C22.1331 4.1467 18.9467 5.95291 18.4219 5.46606C17.1921 4.32533 17.8092 3.06683 16.0271 1.3702C15.3623 0.737331 11.4523 2.96369 11.7045 3.83464C12.4289 6.33594 14.0537 6.15668 14.0993 7.93051C14.1159 8.57603 11.5166 10.0853 11.2173 9.5733L8.39779 4.75112C4.52134 8.20861 1.76117 13.2477 0.606029 18.9761H4.12785C6.21682 18.9761 7.26136 21.988 7.26136 25C7.26136 28.012 6.21683 31.0239 4.12785 31.0239H0.601842C1.75923 36.7521 4.52165 41.79 8.39989 45.2452L11.2173 40.4267C11.5166 39.9147 14.1159 41.424 14.0993 42.0695C14.0537 43.8433 12.4289 43.664 11.7045 46.1653C11.4523 47.0363 15.3623 49.2627 16.0271 48.6298C17.8092 46.9331 17.1921 45.6747 18.4219 44.5339C18.9467 44.0471 22.1331 45.8533 21.7838 46.4506L19.7229 49.9757C19.9 49.9867 20.0773 49.9948 20.2546 50C23.4579 49.9948 26.6144 49.0519 29.4651 47.2488C26.1678 45.1437 23.4026 41.9606 21.4716 38.0472C19.5406 34.1339 18.5181 29.6407 18.5158 25.0587C18.5184 20.4521 19.5521 15.9359 21.5029 12.0086C23.4536 8.08141 26.2456 4.89581 29.5706 2.80346C26.6918 0.962089 23.497 0.000654036 20.2546 0ZM34.8488 3.23055C32.859 3.23051 30.8888 3.79509 29.0505 4.89204C27.2123 5.98899 25.542 7.59683 24.135 9.62376C22.7281 11.6507 21.612 14.057 20.8506 16.7053C20.0892 19.3537 19.6972 22.1921 19.6972 25.0586C19.6972 27.9252 20.0892 30.7636 20.8506 33.412C21.612 36.0603 22.7281 38.4666 24.135 40.4935C25.542 42.5205 27.2123 44.1283 29.0505 45.2252C30.8888 46.3222 32.859 46.8868 34.8488 46.8867C38.8671 46.8867 42.7209 44.587 45.5623 40.4934C48.4037 36.3998 50 30.8478 50 25.0586C50 19.2695 48.4037 13.7175 45.5623 9.6239C42.7209 5.53034 38.8671 3.23058 34.8488 3.23055ZM34.8488 5.10433C36.6677 5.10432 38.4688 5.62045 40.1492 6.62325C41.8297 7.62604 43.3565 9.09587 44.6427 10.9488C45.9289 12.8017 46.9491 15.0015 47.6452 17.4224C48.3412 19.8434 48.6995 22.4382 48.6995 25.0586C48.6995 27.6791 48.3412 30.2739 47.6452 32.6948C46.9491 35.1158 45.9289 37.3156 44.6427 39.1685C43.3565 41.0214 41.8297 42.4912 40.1492 43.494C38.4688 44.4968 36.6677 45.013 34.8488 45.013C33.0299 45.013 31.2288 44.4968 29.5483 43.494C27.8679 42.4912 26.341 41.0214 25.0548 39.1685C23.7686 37.3156 22.7484 35.1158 22.0523 32.6948C21.3563 30.2739 20.998 27.6791 20.998 25.0586C20.998 22.4382 21.3563 19.8434 22.0523 17.4224C22.7484 15.0015 23.7686 12.8017 25.0548 10.9488C26.341 9.09587 27.8679 7.62604 29.5483 6.62325C31.2288 5.62045 33.0299 5.10432 34.8488 5.10433ZM34.8488 6.73368C32.3681 6.73563 29.9421 7.7825 27.8692 9.74544C25.7963 11.7084 24.167 14.5017 23.1819 17.7816C24.4698 16.0298 26.1736 15.0529 27.9448 15.0507C29.7872 15.0507 31.5542 16.1051 32.857 17.982C34.1597 19.8588 34.8916 22.4044 34.8917 25.0586C34.8916 27.7129 34.1597 30.2585 32.857 32.1353C31.5542 34.0122 29.7872 35.0666 27.9448 35.0666C26.1736 35.0643 24.4698 34.0875 23.1819 32.3357C24.167 35.6156 25.7963 38.4089 27.8692 40.3718C29.9421 42.3348 32.3681 43.3817 34.8488 43.3836C38.2222 43.3836 41.4575 41.4529 43.8429 38.0163C46.2282 34.5797 47.5683 29.9187 47.5683 25.0586C47.5683 20.1986 46.2282 15.5376 43.8429 12.101C41.4575 8.66442 38.2222 6.73373 34.8488 6.73368ZM2.44165 21.847C2.121 21.847 1.80349 21.9285 1.50726 22.087C1.21102 22.2454 0.941852 22.4777 0.715123 22.7705C0.488395 23.0633 0.308546 23.4108 0.185845 23.7934C0.0631441 24.1759 -6.40632e-06 24.5859 5.67525e-10 25C-6.91481e-06 25.414 0.0631434 25.8241 0.185844 26.2066C0.308545 26.5891 0.488394 26.9367 0.715123 27.2295C0.941851 27.5223 1.21102 27.7546 1.50726 27.913C1.80349 28.0715 2.121 28.153 2.44165 28.153C2.76229 28.153 3.0798 28.0715 3.37604 27.913C3.67228 27.7546 3.94144 27.5223 4.16817 27.2295C4.3949 26.9367 4.57475 26.5891 4.69745 26.2066C4.82015 25.8241 4.8833 25.414 4.8833 25C4.8833 24.5859 4.82015 24.1759 4.69745 23.7934C4.57475 23.4108 4.3949 23.0633 4.16817 22.7705C3.94144 22.4777 3.67228 22.2454 3.37604 22.087C3.0798 21.9285 2.76229 21.847 2.44165 21.847Z" fill="white"/>
</svg>
