<svg width="27" height="29" viewBox="0 0 27 29" fill="none" xmlns="http://www.w3.org/2000/svg">
<path d="M21.8828 19.4843C21.2234 19.4844 20.5729 19.6362 19.9816 19.9279C19.3902 20.2196 18.8739 20.6434 18.4726 21.1665L9.18786 15.8969C9.49984 14.9917 9.49984 14.0081 9.18786 13.1029L18.4726 7.83332C19.1207 8.67417 20.0568 9.24562 21.1009 9.43773C22.145 9.62983 23.2233 9.42901 24.1282 8.87391C25.0331 8.31881 25.7008 7.44866 26.0027 6.43088C26.3046 5.4131 26.2195 4.31961 25.7637 3.36083C25.3078 2.40206 24.5135 1.64573 23.5336 1.23739C22.5536 0.829051 21.4573 0.797552 20.4555 1.14895C19.4537 1.50035 18.6173 2.20983 18.1072 3.14085C17.5971 4.07188 17.4493 5.15867 17.6923 6.19211L8.24938 11.5516C7.65849 10.923 6.89235 10.4864 6.05034 10.2985C5.20832 10.1107 4.32928 10.1801 3.52723 10.4979C2.72517 10.8157 2.03711 11.3672 1.55228 12.0808C1.06745 12.7944 0.808228 13.6372 0.808228 14.4999C0.808228 15.3626 1.06745 16.2055 1.55228 16.9191C2.03711 17.6327 2.72517 18.1841 3.52723 18.5019C4.32928 18.8197 5.20832 18.8892 6.05034 18.7013C6.89235 18.5134 7.65849 18.0769 8.24938 17.4483L17.6923 22.8078C17.4888 23.6778 17.561 24.5896 17.899 25.4167C18.237 26.2437 18.824 26.9452 19.5785 27.4236C20.3331 27.902 21.2179 28.1338 22.1102 28.0867C23.0024 28.0396 23.8579 27.716 24.5579 27.1608C25.258 26.6056 25.7679 25.8463 26.0169 24.9882C26.266 24.1301 26.2418 23.2158 25.9478 22.3721C25.6537 21.5284 25.1044 20.7971 24.376 20.2796C23.6476 19.7621 22.7763 19.4842 21.8828 19.4843ZM21.8828 2.71868C22.3757 2.71868 22.8575 2.86484 23.2674 3.13868C23.6772 3.41253 23.9966 3.80176 24.1853 4.25714C24.3739 4.71253 24.4232 5.21363 24.3271 5.69707C24.2309 6.1805 23.9936 6.62457 23.645 6.97311C23.2965 7.32165 22.8524 7.559 22.369 7.65516C21.8855 7.75133 21.3845 7.70197 20.9291 7.51334C20.4737 7.32472 20.0845 7.00529 19.8106 6.59545C19.5368 6.18561 19.3906 5.70377 19.3906 5.21086C19.3913 4.55012 19.6541 3.91665 20.1214 3.44943C20.5886 2.98222 21.222 2.71941 21.8828 2.71868ZM5.11716 16.9921C4.62425 16.9921 4.14241 16.846 3.73257 16.5721C3.32273 16.2983 3.00331 15.909 2.81468 15.4536C2.62605 14.9983 2.5767 14.4972 2.67286 14.0137C2.76902 13.5303 3.00638 13.0862 3.35492 12.7377C3.70345 12.3891 4.14752 12.1518 4.63096 12.0556C5.11439 11.9595 5.61549 12.0088 6.07088 12.1974C6.52626 12.3861 6.91549 12.7055 7.18934 13.1153C7.46318 13.5252 7.60935 14.007 7.60935 14.4999C7.60861 15.1607 7.34581 15.7941 6.87859 16.2614C6.41137 16.7286 5.7779 16.9914 5.11716 16.9921ZM21.8828 26.2812C21.3899 26.2812 20.908 26.135 20.4982 25.8612C20.0884 25.5873 19.7689 25.1981 19.5803 24.7427C19.3917 24.2873 19.3423 23.7862 19.4385 23.3028C19.5346 22.8194 19.772 22.3753 20.1205 22.0267C20.4691 21.6782 20.9131 21.4409 21.3966 21.3447C21.88 21.2485 22.3811 21.2979 22.8365 21.4865C23.2919 21.6751 23.6811 21.9946 23.955 22.4044C24.2288 22.8142 24.375 23.2961 24.375 23.789C24.3742 24.4497 24.1114 25.0832 23.6442 25.5504C23.177 26.0176 22.5435 26.2804 21.8828 26.2812Z" fill="white"/>
</svg>
