<svg width="24" height="16" viewBox="0 0 24 16" fill="none" xmlns="http://www.w3.org/2000/svg">
<path d="M23.499 2.46783C23.3596 1.9924 23.0938 1.55937 22.7275 1.21066C22.3612 0.861951 21.9067 0.609382 21.4081 0.47741C19.5363 2.28233e-05 12.0114 2.29387e-05 12.0114 2.29387e-05C12.0114 2.29387e-05 4.50088 -0.0114288 2.60954 0.47741C2.11169 0.609962 1.65809 0.862795 1.29261 1.21147C0.927116 1.56015 0.662092 1.99288 0.523149 2.46783C0.16769 4.29595 -0.00737956 6.15182 0.000238261 8.01111C-0.00323013 9.86145 0.171812 11.7082 0.523149 13.5279C0.662542 14.0031 0.927644 14.4362 1.29301 14.7855C1.65837 15.1348 2.11172 15.3886 2.60954 15.5226C4.48137 16 12.0114 16 12.0114 16C12.0114 16 19.5175 16 21.4081 15.5226C21.9067 15.3892 22.361 15.1356 22.7271 14.7863C23.0933 14.4369 23.3591 14.0036 23.499 13.5279C23.8433 11.7092 24.0114 9.85982 23.9994 8.01111C24.0114 6.15023 23.8471 4.29794 23.499 2.46783ZM9.6077 11.4373V4.56991L15.8714 8.01111L9.6077 11.4373Z" fill="white"/>
</svg>
