<svg width="23" height="20" viewBox="0 0 23 20" fill="none" xmlns="http://www.w3.org/2000/svg">
<path d="M22.2215 10.0003C22.2246 11.0222 22.0249 12.0345 21.6339 12.9785C21.2429 13.9226 20.6684 14.7797 19.9438 15.5001C19.7341 15.7071 19.4514 15.8231 19.1568 15.8231C18.8622 15.8231 18.5794 15.7071 18.3698 15.5001C18.2662 15.3969 18.184 15.2743 18.1279 15.1392C18.0718 15.0042 18.043 14.8594 18.043 14.7131C18.043 14.5669 18.0718 14.4221 18.1279 14.2871C18.184 14.152 18.2662 14.0294 18.3698 13.9261C18.886 13.411 19.2956 12.7991 19.575 12.1254C19.8544 11.4518 19.9983 10.7296 19.9983 10.0003C19.9983 9.27103 19.8544 8.54889 19.575 7.87525C19.2956 7.20161 18.886 6.58969 18.3698 6.07454C18.161 5.86581 18.0438 5.58271 18.0438 5.28753C18.0438 4.99234 18.161 4.70924 18.3698 4.50051C18.5785 4.29179 18.8616 4.17452 19.1568 4.17452C19.452 4.17452 19.7351 4.29179 19.9438 4.50051C20.6684 5.22094 21.2429 6.07804 21.6339 7.02212C22.0249 7.9662 22.2246 8.9785 22.2215 10.0003ZM14.0736 1.11174V18.8889C14.0742 19.097 14.0164 19.301 13.9067 19.4778C13.797 19.6546 13.6399 19.797 13.4533 19.8889C13.2999 19.9618 13.1323 19.9997 12.9625 20C12.7155 19.9967 12.4758 19.9157 12.2774 19.7685L5.91647 14.815H1.85179C1.36142 14.8126 0.891818 14.6167 0.545066 14.2699C0.198314 13.9232 0.00243367 13.4536 0 12.9632V7.03747C0.00243367 6.54709 0.198314 6.0775 0.545066 5.73074C0.891818 5.38399 1.36142 5.18811 1.85179 5.18568H5.91647L12.2774 0.232138C12.4431 0.105435 12.6408 0.0271185 12.8483 0.00587239C13.0559 -0.0153737 13.2653 0.021281 13.4533 0.111772C13.6399 0.203656 13.797 0.346099 13.9067 0.522885C14.0164 0.699671 14.0742 0.903698 14.0736 1.11174ZM2.22215 12.5928H5.18501V7.40783H2.22215V12.5928ZM11.8515 3.38018L7.40716 6.84303V13.1576L11.8515 16.6205V3.38018ZM17.3235 7.1208C17.1148 6.91207 16.8317 6.79481 16.5365 6.79481C16.2413 6.79481 15.9582 6.91207 15.7495 7.1208C15.5408 7.32953 15.4235 7.61262 15.4235 7.90781C15.4235 8.203 15.5408 8.48609 15.7495 8.69482C15.9225 8.86538 16.0599 9.06863 16.1536 9.29275C16.2474 9.51687 16.2957 9.75739 16.2957 10.0003C16.2957 10.2433 16.2474 10.4838 16.1536 10.7079C16.0599 10.932 15.9225 11.1353 15.7495 11.3058C15.6459 11.4091 15.5637 11.5317 15.5076 11.6668C15.4516 11.8018 15.4227 11.9466 15.4227 12.0929C15.4227 12.2391 15.4516 12.3839 15.5076 12.5189C15.5637 12.654 15.6459 12.7766 15.7495 12.8799C15.8523 12.9838 15.9749 13.066 16.1101 13.1217C16.2453 13.1774 16.3903 13.2053 16.5365 13.2039C16.6828 13.2064 16.8281 13.1789 16.9635 13.1232C17.0988 13.0675 17.2213 12.9847 17.3235 12.8799C17.7026 12.5022 18.0033 12.0535 18.2085 11.5593C18.4138 11.0652 18.5194 10.5354 18.5194 10.0003C18.5194 9.46527 18.4138 8.93548 18.2085 8.44134C18.0033 7.9472 17.7026 7.49844 17.3235 7.1208Z" fill="white"/>
</svg>
