<svg width="16" height="16" viewBox="0 0 16 16" fill="none" xmlns="http://www.w3.org/2000/svg">
<g clip-path="url(#clip0_70_219)">
<path d="M15.9685 3.0465C15.3697 3.30975 14.7354 3.48361 14.086 3.5625C14.7706 3.15165 15.283 2.50667 15.5285 1.747C14.8811 2.1225 14.1764 2.38921 13.4425 2.5365C12.949 2.00923 12.2953 1.65956 11.5828 1.54175C10.8703 1.42393 10.1389 1.54456 9.50193 1.88492C8.86498 2.22527 8.35817 2.76632 8.06012 3.42412C7.76207 4.08193 7.68945 4.81971 7.85352 5.523C5.12702 5.3955 2.71002 4.0855 1.09352 2.1065C0.799261 2.60694 0.645361 3.17746 0.648023 3.758C0.647622 4.29768 0.780496 4.82911 1.03484 5.3051C1.28919 5.78108 1.65714 6.18689 2.10602 6.4865C1.58584 6.47077 1.07698 6.3307 0.622023 6.078V6.1175C0.621865 6.87501 0.883628 7.60928 1.36295 8.19585C1.84227 8.78243 2.50967 9.18524 3.25202 9.336C2.97082 9.41113 2.68109 9.44962 2.39002 9.4505C2.17952 9.4505 1.97852 9.43 1.77802 9.393C1.98929 10.0449 2.39853 10.6146 2.94878 11.023C3.49903 11.4314 4.16291 11.6581 4.84802 11.6715C3.68723 12.5806 2.25492 13.0737 0.780523 13.072C0.519376 13.073 0.258404 13.0583 -0.000976562 13.028C1.50307 13.9917 3.25221 14.5033 5.03852 14.502C11.072 14.502 14.369 9.5045 14.369 5.1765C14.369 5.0385 14.369 4.898 14.3585 4.757C15.0035 4.29477 15.5593 3.71947 15.999 3.059L15.9685 3.0465Z" fill="white"/>
</g>
<defs>
<clipPath id="clip0_70_219">
<rect width="16" height="16" fill="white"/>
</clipPath>
</defs>
</svg>
