<svg width="16" height="16" viewBox="0 0 16 16" fill="none" xmlns="http://www.w3.org/2000/svg">
<g clip-path="url(#clip0_70_214)">
<path d="M10.4553 0H5.54377C1.06177 0 -0.000732422 1.0625 -0.000732422 5.5445V10.456C-0.000732422 14.938 1.06177 16.0005 5.54377 16.0005H10.4553C14.9373 16.0005 15.9998 14.938 15.9998 10.456V5.5445C15.9998 1.0625 14.9268 0 10.4553 0ZM12.9163 11.414H11.7548C11.3148 11.414 11.1793 11.065 10.3878 10.263C9.70027 9.5965 9.39577 9.508 9.22627 9.508C8.98677 9.508 8.91877 9.5755 8.91877 9.904V10.9535C8.91877 11.235 8.83027 11.404 8.08527 11.404C6.85327 11.404 5.48627 10.659 4.52777 9.271C3.08227 7.237 2.68677 5.7135 2.68677 5.3985C2.68677 5.229 2.75427 5.0705 3.07977 5.0705H4.24377C4.53827 5.0705 4.65027 5.206 4.76477 5.521C5.34027 7.1825 6.29877 8.638 6.69427 8.638C6.84027 8.638 6.90777 8.5705 6.90777 8.198V6.482C6.86327 5.6905 6.44677 5.6225 6.44677 5.3415C6.44677 5.206 6.55877 5.0705 6.73827 5.0705H8.56877C8.81627 5.0705 8.90727 5.206 8.90727 5.4975V7.8125C8.90727 8.0625 9.01927 8.151 9.08677 8.151C9.23277 8.151 9.35777 8.0625 9.62827 7.7915C10.4643 6.854 11.0633 5.4085 11.0633 5.4085C11.1413 5.239 11.2768 5.0805 11.5713 5.0805H12.7353C13.0843 5.0805 13.1623 5.26 13.0843 5.51C12.9383 6.187 11.5138 8.1975 11.5138 8.1975C11.3913 8.4005 11.3443 8.489 11.5138 8.7155C11.6388 8.885 12.0453 9.2365 12.3158 9.5515C12.8133 10.1165 13.1958 10.5905 13.2978 10.9185C13.4123 11.244 13.2433 11.4135 12.9148 11.4135L12.9163 11.414Z" fill="white"/>
</g>
<defs>
<clipPath id="clip0_70_214">
<rect width="16" height="16" fill="white"/>
</clipPath>
</defs>
</svg>
